<?xml version="1.0" encoding="UTF-8"?>
<svg width="17px" height="24px" viewBox="0 0 17 24" version="1.1" xmlns="http://www.w3.org/2000/svg" xmlns:xlink="http://www.w3.org/1999/xlink">
    <title>Icon/40/calibration</title>
    <g id="Prototype:-v3" stroke="none" stroke-width="1" fill="none" fill-rule="evenodd">
        <g id="Group" transform="translate(-12.000000, -8.000000)" fill="#000000" fill-rule="nonzero">
            <g id="measure-ruler-divide" transform="translate(12.000000, 8.000000)">
                <path d="M15.792,20.7 C16.2646191,20.2140998 16.4075686,19.495828 16.157,18.866 L11.95,8.326 C11.8830295,8.16296359 11.7351658,8.04723096 11.5608157,8.02138612 C11.3864656,7.99554128 11.2113868,8.06340244 11.1,8.2 C10.6171215,8.79224168 9.9536887,9.21017979 9.211,9.39 C9.07030768,9.42429903 8.95139655,9.51791141 8.88502804,9.64662027 C8.81865954,9.77532914 8.81135352,9.9264905 8.865,10.061 L12.894,20.132 C13.1304677,20.7657878 13.7187018,21.2002968 14.394,21.24 L15.176,23.272 C15.3248408,23.6585993 15.7589007,23.8513407 16.1455,23.7025 C16.5320993,23.5536592 16.7248407,23.1195993 16.576,22.733 L15.792,20.7 Z" id="Path"></path>
                <path d="M7.542,9.39 C6.79967414,9.20997972 6.13661949,8.79205862 5.654,8.2 C5.54215369,8.06261457 5.36595916,7.99467029 5.19082975,8.02139192 C5.01570035,8.04811354 4.86778567,8.1655111 4.802,8.33 L0.593,18.875 C0.348166178,19.5027801 0.491524117,20.2156636 0.96,20.7 L0.179,22.733 C0.0827169235,22.9830859 0.127166938,23.2655412 0.295606154,23.4739678 C0.464045369,23.6823943 0.730883862,23.7851271 0.995606154,23.7434678 C1.26032845,23.7018084 1.48271692,23.5220859 1.579,23.272 L2.362,21.24 C3.03355527,21.1999668 3.61896682,20.7692292 3.857,20.14 L7.887,10.061 C7.9406659,9.92662937 7.93349174,9.77559959 7.86733059,9.64692093 C7.80116943,9.51824228 7.68250947,9.42453382 7.542,9.39 Z" id="Path"></path>
                <path d="M10.875,6.008 L10.875,3.508 C10.875,2.95571525 10.4272847,2.508 9.875,2.508 C9.59885763,2.508 9.375,2.28414237 9.375,2.008 L9.375,1.008 C9.375,0.45571525 8.92728475,0.008 8.375,0.008 C7.82271525,0.008 7.375,0.45571525 7.375,1.008 L7.375,2.008 C7.375,2.28414237 7.15114237,2.508 6.875,2.508 C6.32271525,2.508 5.875,2.95571525 5.875,3.508 L5.875,6.008 C5.875,7.38871187 6.99428813,8.508 8.375,8.508 C9.75571187,8.508 10.875,7.38871187 10.875,6.008 L10.875,6.008 Z" id="Path"></path>
            </g>
        </g>
    </g>
</svg>