<?xml version="1.0" encoding="UTF-8"?>
<svg width="40px" height="40px" viewBox="0 0 40 40" version="1.1" xmlns="http://www.w3.org/2000/svg" xmlns:xlink="http://www.w3.org/1999/xlink">
    <title>69D77696-84D6-4CEF-8597-13708388CF8B</title>
    <g id="Symbols" stroke="none" stroke-width="1" fill="none" fill-rule="evenodd">
        <g id="Icon/40/delete" fill="#000000" fill-rule="nonzero">
            <g id="bin-1" transform="translate(9.000000, 8.000000)">
                <path d="M18.452,7.49999587 L3.547,7.49999587 C3.40621372,7.49942855 3.27171041,7.55823801 3.17653378,7.66198053 C3.08135715,7.76572306 3.03432797,7.90478402 3.047,8.045 L4.334,22.181 C4.42762345,23.2112682 5.29148665,23.9999959 6.326,23.9999959 L15.673,23.9999959 C16.7075134,23.9999959 17.5713765,23.2112682 17.665,22.181 L18.95,8.045 C18.9625215,7.90520479 18.9157096,7.76658365 18.821,7.663 C18.7263484,7.55925794 18.5924326,7.49999587 18.452,7.49999587 Z M9.252,20.5 C9.252,20.9142136 8.91621356,21.25 8.502,21.25 C8.08778644,21.25 7.752,20.9142136 7.752,20.5 L7.752,11.5 C7.752,11.0857864 8.08778644,10.75 8.502,10.75 C8.91621356,10.75 9.252,11.0857864 9.252,11.5 L9.252,20.5 Z M14.252,20.5 C14.252,20.9142136 13.9162136,21.25 13.502,21.25 C13.0877864,21.25 12.752,20.9142136 12.752,20.5 L12.752,11.5 C12.752,11.0857864 13.0877864,10.75 13.502,10.75 C13.9162136,10.75 14.252,11.0857864 14.252,11.5 L14.252,20.5 Z" id="Shape"></path>
                <path d="M21,4 L16.25,4 C16.1119288,4 16,3.88807119 16,3.75 L16,2.5 C16,1.11928813 14.8807119,0 13.5,0 L8.5,0 C7.11928813,0 6,1.11928813 6,2.5 L6,3.75 C6,3.81630412 5.97366079,3.8798926 5.9267767,3.9267767 C5.8798926,3.97366079 5.81630412,4 5.75,4 L1,4 C0.44771525,4 0,4.44771525 0,5 C0,5.55228475 0.44771525,6 1,6 L21,6 C21.5522847,6 22,5.55228475 22,5 C22,4.44771525 21.5522847,4 21,4 Z M8,3.75 L8,2.5 C8,2.22385763 8.22385763,2 8.5,2 L13.5,2 C13.7761424,2 14,2.22385763 14,2.5 L14,3.75 C14,3.88807119 13.8880712,4 13.75,4 L8.25,4 C8.11192881,4 8,3.88807119 8,3.75 Z" id="Shape"></path>
            </g>
        </g>
    </g>
</svg>