<?xml version="1.0" encoding="UTF-8"?>
<svg width="40px" height="40px" viewBox="0 0 40 40" version="1.1" xmlns="http://www.w3.org/2000/svg" xmlns:xlink="http://www.w3.org/1999/xlink">
    <title>53137212-9FB3-4E0E-A635-61F4D75C69B0</title>
    <g id="Symbols" stroke="none" stroke-width="1" fill="none" fill-rule="evenodd">
        <g id="Icon/40/edit" fill="#000000" fill-rule="nonzero">
            <g id="pencil" transform="translate(8.000000, 8.000000)">
                <path d="M16.187,3.511 C15.9887523,3.32318719 15.6782477,3.32318719 15.48,3.511 L4.067,14.924 C3.87180903,15.1192499 3.87180903,15.4357501 4.067,15.631 L8.347,19.911 C8.54224993,20.106191 8.85875007,20.106191 9.054,19.911 L20.467,8.5 C20.662191,8.30475007 20.662191,7.98824993 20.467,7.793 L16.187,3.511 Z" id="Path"></path>
                <path d="M3,16.71 C2.87682371,16.5875531 2.69892858,16.5377995 2.53010121,16.578579 C2.36127384,16.6193586 2.22570324,16.7448285 2.172,16.91 L0.032,23.33 C-0.0282268478,23.5096185 0.0182333657,23.7078487 0.152,23.842 C0.286862847,23.9744492 0.484113271,24.0210651 0.664,23.963 L7.084,21.824 C7.24957104,21.7704565 7.3753956,21.634681 7.41620626,21.4655208 C7.45701692,21.2963606 7.40694322,21.1181488 7.284,20.995 L3,16.71 Z" id="Path"></path>
                <path d="M22.968,1.017 C21.5720319,-0.314812043 19.3759681,-0.314812043 17.98,1.017 L17.268,1.73 C17.072809,1.92524993 17.072809,2.24175007 17.268,2.437 L21.547,6.717 C21.7422499,6.91219097 22.0587501,6.91219097 22.254,6.717 L22.968,6 C24.3404461,4.62250514 24.3404461,2.39449486 22.968,1.017 L22.968,1.017 Z" id="Path"></path>
            </g>
        </g>
    </g>
</svg>