<?xml version="1.0" encoding="UTF-8"?>
<svg width="40px" height="40px" viewBox="0 0 40 40" version="1.1" xmlns="http://www.w3.org/2000/svg" xmlns:xlink="http://www.w3.org/1999/xlink">
    <title>FF1557FF-F6A3-4A0E-A4C6-8B98E3B23A9F</title>
    <g id="Symbols" stroke="none" stroke-width="1" fill="none" fill-rule="evenodd">
        <g id="Icon/40/settings" fill="#000000" fill-rule="nonzero">
            <g id="cog" transform="translate(8.000000, 8.000000)">
                <path d="M22.5,9.5 L20.638,9.5 C20.4528844,8.86020053 20.1969683,8.24305021 19.875,7.66 L21.192,6.344 C21.4735125,6.06266785 21.6316798,5.6809913 21.6316798,5.283 C21.6316798,4.8850087 21.4735125,4.50333215 21.192,4.222 L19.777,2.809 C19.1912502,2.22342709 18.2417498,2.22342709 17.656,2.809 L16.338,4.126 C15.7557624,3.80379909 15.1392478,3.54786836 14.5,3.363 L14.5,1.5 C14.5,0.671572875 13.8284271,0 13,0 L11,0 C10.1715729,0 9.5,0.671572875 9.5,1.5 L9.5,3.363 C8.86058285,3.54829525 8.24378346,3.80420495 7.661,4.126 L6.343,2.809 C5.75725022,2.22342709 4.80774978,2.22342709 4.222,2.809 L2.807,4.223 C2.52548749,4.50433215 2.36732023,4.8860087 2.36732023,5.284 C2.36732023,5.6819913 2.52548749,6.06366785 2.807,6.345 L4.125,7.662 C3.80258623,8.24413488 3.54664535,8.86067399 3.362,9.5 L1.5,9.5 C0.671572875,9.5 0,10.1715729 0,11 L0,13 C0,13.8284271 0.671572875,14.5 1.5,14.5 L3.362,14.5 C3.54657493,15.1396698 3.80251731,15.756548 4.125,16.339 L2.806,17.658 C2.22042709,18.2437498 2.22042709,19.1932502 2.806,19.779 L4.22,21.193 C4.8154777,21.7555628 5.7465223,21.7555628 6.342,21.193 L7.66,19.876 C8.24308627,20.1981487 8.86021925,20.454393 9.5,20.64 L9.5,22.5 C9.5,23.3284271 10.1715729,24 11,24 L13,24 C13.8284271,24 14.5,23.3284271 14.5,22.5 L14.5,20.64 C15.1394282,20.4547361 15.756231,20.198825 16.339,19.877 L17.657,21.194 C18.2427498,21.7795729 19.1922502,21.7795729 19.778,21.194 L21.192,19.78 C21.7775729,19.1942502 21.7775729,18.2447498 21.192,17.659 L19.875,16.342 C20.1973156,15.7591171 20.4532482,15.141927 20.638,14.502 L22.5,14.502 C22.8981715,14.5020004 23.2800058,14.3436906 23.5613679,14.0619533 C23.84273,13.780216 24.0005309,13.3981711 24,13 L24,11 C24,10.1715729 23.3284271,9.5 22.5,9.5 Z M12,17 C9.23857625,17 7,14.7614237 7,12 C7,9.23857625 9.23857625,7 12,7 C14.7614237,7 17,9.23857625 17,12 C16.9966939,14.7600532 14.7600532,16.9966939 12,17 Z" id="Shape"></path>
            </g>
        </g>
    </g>
</svg>