<?xml version="1.0" encoding="UTF-8"?>
<svg width="40px" height="40px" viewBox="0 0 40 40" version="1.1" xmlns="http://www.w3.org/2000/svg" xmlns:xlink="http://www.w3.org/1999/xlink">
    <title>660069CC-63B2-4487-97AC-673BB8209FD0</title>
    <defs>
        <path d="M31.7,21.178 L20.7,10.239 C20.3100795,9.85193865 19.6809205,9.85193865 19.291,10.239 L8.3,21.186 C8.10909881,21.3746822 8.00115353,21.6315919 8,21.9 L8,29.05 C8,29.4546536 8.24403324,29.8193712 8.61799868,29.9739494 C8.99196412,30.1285276 9.42222857,30.0424948 9.708,29.756 L19.822,19.627 C19.8687701,19.5797316 19.9325038,19.5531342 19.999,19.5531342 C20.0654962,19.5531342 20.1292299,19.5797316 20.176,19.627 L30.291,29.75 C30.5769324,30.0374729 31.0081497,30.1238374 31.3827376,29.9686541 C31.7573256,29.8134708 32.0011334,29.4474586 32,29.042 L32,21.887 C31.997308,21.6203736 31.8894981,21.365583 31.7,21.178 L31.7,21.178 Z" id="path-1"></path>
    </defs>
    <g id="Symbols" stroke="none" stroke-width="1" fill="none" fill-rule="evenodd">
        <g id="Icon/40/up">
            <mask id="mask-2" fill="white">
                <use xlink:href="#path-1"></use>
            </mask>
            <use id="Path" fill="#000000" fill-rule="nonzero" xlink:href="#path-1"></use>
        </g>
    </g>
</svg>