<?xml version="1.0" encoding="UTF-8"?>
<svg width="40px" height="40px" viewBox="0 0 40 40" version="1.1" xmlns="http://www.w3.org/2000/svg" xmlns:xlink="http://www.w3.org/1999/xlink">
    <title>03E77676-EE22-4292-99F7-67C890C969D0</title>
    <defs>
        <path d="M20,8 C13.372583,8 8,13.372583 8,20 C8,26.627417 13.372583,32 20,32 C26.627417,32 32,26.627417 32,20 C31.9922852,13.3757812 26.6242188,8.00771476 20,8 Z M26.927,16.2 L20.082,25.489 C19.9187536,25.7055896 19.6753283,25.8475051 19.4064219,25.8828578 C19.1375155,25.9182105 18.8656811,25.8440355 18.652,25.677 L13.764,21.769 C13.3326656,21.423822 13.262822,20.7943344 13.608,20.363 C13.953178,19.9316656 14.5826656,19.861822 15.014,20.207 L19.09,23.468 L25.317,15.017 C25.521192,14.71059 25.8772511,14.5411827 26.2438115,14.5760375 C26.610372,14.6108924 26.9281223,14.8443698 27.0709064,15.1837724 C27.2136904,15.5231751 27.158405,15.9135857 26.927,16.2 Z" id="path-1"></path>
    </defs>
    <g id="Symbols" stroke="none" stroke-width="1" fill="none" fill-rule="evenodd">
        <g id="Icon/40/checkmark">
            <mask id="mask-2" fill="white">
                <use xlink:href="#path-1"></use>
            </mask>
            <use id="Shape" fill="#000000" fill-rule="nonzero" xlink:href="#path-1"></use>
        </g>
    </g>
</svg>