<?xml version="1.0" encoding="UTF-8" standalone="no"?>
<svg
   width="75"
   height="65"
   viewBox="0 0 75 65"
   version="1.1"
   id="svg10"
   sodipodi:docname="icon_40_alarm.svg"
   inkscape:version="1.2.2 (b0a8486, 2022-12-01)"
   xmlns:inkscape="http://www.inkscape.org/namespaces/inkscape"
   xmlns:sodipodi="http://sodipodi.sourceforge.net/DTD/sodipodi-0.dtd"
   xmlns="http://www.w3.org/2000/svg"
   xmlns:svg="http://www.w3.org/2000/svg"
   xmlns:rdf="http://www.w3.org/1999/02/22-rdf-syntax-ns#"
   xmlns:cc="http://creativecommons.org/ns#"
   xmlns:dc="http://purl.org/dc/elements/1.1/">
  <defs
     id="defs14" />
  <sodipodi:namedview
     id="namedview12"
     pagecolor="#ffffff"
     bordercolor="#000000"
     borderopacity="0.25"
     inkscape:showpageshadow="2"
     inkscape:pageopacity="0.0"
     inkscape:pagecheckerboard="0"
     inkscape:deskcolor="#d1d1d1"
     showgrid="false"
     inkscape:zoom="21.25"
     inkscape:cx="12.8"
     inkscape:cy="20"
     inkscape:window-width="1920"
     inkscape:window-height="1043"
     inkscape:window-x="1920"
     inkscape:window-y="0"
     inkscape:window-maximized="1"
     inkscape:current-layer="svg10" />
  <title
     id="title2">C646B3EC-4809-41BA-92D9-76AFDE2B1DAD</title>
  <g
     id="Symbols"
     stroke="none"
     stroke-width="1"
     fill="none"
     fill-rule="evenodd"
     transform="translate(17.499749,12.500002)">
    <g
       id="Icon/40/alarm"
       fill="#000000"
       fill-rule="nonzero">
      <g
         id="alarm-bell-1"
         transform="translate(10,8)">
        <path
           d="M 12.236,20.999996 H 7.764 c -0.1270735,2.21e-4 -0.2337679,0.09573 -0.248,0.222004 -0.010897,0.09226 -0.01624,0.185097 -0.016008,0.277996 0,1.380716 1.1192958,2.5 2.5,2.5 1.38072,0 2.500016,-1.119284 2.500016,-2.5 2.32e-4,-0.0929 -0.0051,-0.185733 -0.01601,-0.277996 -0.01336,-0.126724 -0.120576,-0.222702 -0.248,-0.222004 z"
           id="Path" />
        <path
           d="M 19.446,19.276 C 18.301495,17.001124 17.703642,14.490554 17.7,11.944 V 11.176 C 17.756259,8.1511528 16.307845,5.2955378 13.834,3.554 13.124413,3.0965642 12.331083,2.7845343 11.5,2.636 V 1.5 C 11.5,0.67157287 10.828427,0 10,0 9.1715729,0 8.5,0.67157287 8.5,1.5 V 2.649 C 7.4627508,2.8454463 6.486173,3.2828682 5.649,3.926 3.4872789,5.7068959 2.2545482,8.3755425 2.3,11.176 v 0.768 C 2.29636,14.490554 1.698505,17.001124 0.554,19.276 0.4764121,19.430834 0.4844735,19.614793 0.5753083,19.762247 0.66614301,19.9097 0.82681393,19.999648 1,20 h 18 c 0.173475,0 0.33446,-0.09026 0.425355,-0.238017 0.09089,-0.147755 0.09871,-0.332065 0.02065,-0.486983 z"
           id="path5" />
      </g>
    </g>
  </g>
  <metadata
     id="metadata243">
    <rdf:RDF>
      <cc:Work
         rdf:about="">
        <dc:title>C646B3EC-4809-41BA-92D9-76AFDE2B1DAD</dc:title>
      </cc:Work>
    </rdf:RDF>
  </metadata>
</svg>
