<?xml version="1.0" encoding="UTF-8"?>
<svg width="40px" height="40px" viewBox="0 0 40 40" version="1.1" xmlns="http://www.w3.org/2000/svg" xmlns:xlink="http://www.w3.org/1999/xlink">
    <title>FD840651-A97F-4B1F-B79B-8533C057622E</title>
    <g id="Symbols" stroke="none" stroke-width="1" fill="none" fill-rule="evenodd">
        <g id="Icon/40/home" fill="#000000" fill-rule="nonzero">
            <g id="house-entrance" transform="translate(8.000000, 8.000000)">
                <path d="M23.9999996,9.5 C23.9999996,9.19032444 23.8561487,8.89821174 23.611,8.709 L12.611,0.209 C12.2506476,-0.0698563171 11.7473524,-0.0698563171 11.387,0.209 L0.387,8.709 C0.142602795,8.89861975 -0.00028358439,9.19066917 -4.21323534e-07,9.5 L-4.21323534e-07,23 C-4.21323534e-07,23.5522847 0.44771525,24 0.999999579,24 L8.99999958,24 C9.27614237,24 9.49999958,23.7761424 9.49999958,23.5 L9.49999958,19 C9.49999958,17.6192881 10.6192881,16.5 11.9999996,16.5 C13.3807119,16.5 14.4999996,17.6192881 14.4999996,19 L14.4999996,23.5 C14.4999996,23.7761424 14.7238576,24 14.9999996,24 L22.9999996,24 C23.5522847,24 23.9999996,23.5522847 23.9999996,23 L23.9999996,9.5 Z" id="Path"></path>
            </g>
        </g>
    </g>
</svg>