<?xml version="1.0" encoding="UTF-8"?>
<svg width="40px" height="40px" viewBox="0 0 40 40" version="1.1" xmlns="http://www.w3.org/2000/svg" xmlns:xlink="http://www.w3.org/1999/xlink">
    <title>D9B21EE4-447A-46FD-9367-C2C1240C068E</title>
    <g id="Symbols" stroke="none" stroke-width="1" fill="none" fill-rule="evenodd">
        <g id="Icon/40/presets" fill="#000000" fill-rule="nonzero">
            <g id="settings-toggle-horizontal-alternate" transform="translate(8.000000, 8.000000)">
                <path d="M22.044,0 L1.956,0 C0.875636214,0.00165432398 0.000550221427,0.877635087 0,1.958 L0,22.044 C0.00165200588,23.1235839 0.876416053,23.998348 1.956,24 L22.044,24 C23.1235839,23.998348 23.998348,23.1235839 24,22.044 L24,1.958 C23.9994498,0.877635087 23.1243638,0.00165432398 22.044,0 Z M21.5,21.959 L2.544,22 C2.26785763,22 2.044,21.7761424 2.044,21.5 L2,2.5 C2,2.22385763 2.22385763,2 2.5,2 L21.5,1.959 C21.7761424,1.959 22,2.18285763 22,2.459 L22,21.459 C22,21.7351424 21.7761424,21.959 21.5,21.959 Z" id="Shape"></path>
                <path d="M7.967,10.779 L16.033,10.779 C17.9229184,10.779 19.455,9.24691841 19.455,7.357 C19.455,5.46708159 17.9229184,3.935 16.033,3.935 L7.967,3.935 C6.07708159,3.935 4.545,5.46708159 4.545,7.357 C4.545,9.24691841 6.07708159,10.779 7.967,10.779 L7.967,10.779 Z M7.967,5.617 C8.91195921,5.617 9.678,6.38304079 9.678,7.328 C9.678,8.27295921 8.91195921,9.039 7.967,9.039 C7.02204079,9.039 6.256,8.27295921 6.256,7.328 C6.25655167,6.3832694 7.0222694,5.61755167 7.967,5.617 L7.967,5.617 Z" id="Shape"></path>
                <path d="M7.967,20.067 L16.033,20.067 C17.9229184,20.067 19.455,18.5349184 19.455,16.645 C19.455,14.7550816 17.9229184,13.223 16.033,13.223 L7.967,13.223 C6.74443713,13.223 5.61474245,13.8752295 5.00346101,14.934 C4.39217957,15.9927705 4.39217957,17.2972295 5.00346101,18.356 C5.61474245,19.4147705 6.74443713,20.067 7.967,20.067 Z M16.033,14.967 C16.9779592,14.967 17.744,15.7330408 17.744,16.678 C17.744,17.6229592 16.9779592,18.389 16.033,18.389 C15.0880408,18.389 14.3219974,17.6229592 14.3219974,16.678 C14.3212037,16.223603 14.5010857,15.7875297 14.822018,15.4658471 C15.1429503,15.1441645 15.5786024,14.9632647 16.033,14.963 L16.033,14.967 Z" id="Shape"></path>
            </g>
        </g>
    </g>
</svg>