<?xml version="1.0" encoding="UTF-8"?>
<svg width="40px" height="40px" viewBox="0 0 40 40" version="1.1" xmlns="http://www.w3.org/2000/svg" xmlns:xlink="http://www.w3.org/1999/xlink">
    <title>D928F1D0-CF16-4C82-8ED1-A7A11527ACFC</title>
    <defs>
        <path d="M31.3810016,10.0755613 C31.006829,9.92124937 30.5765354,10.0077029 30.2910016,10.2945613 L20.1910016,20.4215613 C20.1440995,20.4685822 20.0804152,20.4950082 20.0140016,20.4950082 C19.947588,20.4950082 19.8839037,20.4685822 19.8370016,20.4215613 L9.70800161,10.2975613 C9.42197323,10.0108076 8.99122272,9.92490105 8.61707504,10.0799927 C8.24292736,10.2350844 7.99927696,10.6005436 8,11.0055613 L8,18.1575613 C8.00225907,18.424278 8.1101361,18.6792274 8.30000161,18.8665613 L19.3110016,29.8245613 C19.7011555,30.2129481 20.3318477,30.2129481 20.7220016,29.8245613 L31.7000016,18.8625613 C31.8905692,18.6773499 31.9986752,18.4233009 32,18.1575613 L32,11.0005613 C32,10.5952813 31.7557135,10.229973 31.3810016,10.0755613 Z" id="path-1"></path>
    </defs>
    <g id="Symbols" stroke="none" stroke-width="1" fill="none" fill-rule="evenodd">
        <g id="Icon/40/down">
            <mask id="mask-2" fill="white">
                <use xlink:href="#path-1"></use>
            </mask>
            <use id="Path" fill="#000000" fill-rule="nonzero" xlink:href="#path-1"></use>
            <g id="arrow-button-down-3" mask="url(#mask-2)">
                <g transform="translate(8.000000, 10.000000)"></g>
            </g>
        </g>
    </g>
</svg>