<?xml version="1.0" encoding="UTF-8"?>
<svg xmlns="http://www.w3.org/2000/svg" xmlns:xlink="http://www.w3.org/1999/xlink" width="40px" height="40px" viewBox="0 0 40 40" version="1.1">
<g id="surface1">
<path style=" stroke:none;fill-rule:nonzero;fill:rgb(0%,0%,0%);fill-opacity:1;" d="M 13.875 13.875 L 26.125 13.875 L 26.125 23.367188 L 13.875 23.367188 Z M 13.875 13.875 "/>
<path style=" stroke:none;fill-rule:nonzero;fill:rgb(0%,0%,0%);fill-opacity:1;" d="M 20 0.398438 C 9.175781 0.398438 0.398438 9.175781 0.398438 20 C 0.398438 30.824219 9.175781 39.601562 20 39.601562 C 30.824219 39.601562 39.601562 30.824219 39.601562 20 C 39.601562 9.175781 30.824219 0.398438 20 0.398438 Z M 28.878906 13.875 L 27.960938 13.875 L 27.960938 24.289062 C 27.960938 24.796875 27.546875 25.207031 27.039062 25.207031 L 22.21875 25.207031 L 25.242188 28.230469 C 25.410156 28.398438 25.511719 28.628906 25.511719 28.878906 C 25.511719 29.386719 25.101562 29.800781 24.59375 29.800781 C 24.339844 29.800781 24.109375 29.695312 23.945312 29.53125 L 20.921875 26.503906 L 20.921875 28.878906 C 20.921875 29.386719 20.507812 29.800781 20 29.800781 C 19.492188 29.800781 19.078125 29.386719 19.078125 28.878906 L 19.078125 26.503906 L 16.054688 29.527344 C 15.890625 29.695312 15.660156 29.796875 15.40625 29.796875 C 14.898438 29.796875 14.488281 29.382812 14.488281 28.875 C 14.488281 28.625 14.59375 28.390625 14.757812 28.226562 L 17.78125 25.203125 L 12.960938 25.203125 C 12.453125 25.203125 12.039062 24.792969 12.039062 24.285156 L 12.039062 13.871094 L 11.121094 13.871094 C 10.613281 13.871094 10.199219 13.460938 10.199219 12.953125 C 10.199219 12.445312 10.613281 12.03125 11.121094 12.03125 L 19.085938 12.03125 L 19.085938 11.113281 C 19.085938 10.605469 19.496094 10.191406 20.003906 10.191406 C 20.511719 10.191406 20.925781 10.605469 20.925781 11.113281 L 20.925781 12.03125 L 28.886719 12.03125 C 29.394531 12.03125 29.808594 12.445312 29.808594 12.953125 C 29.800781 13.464844 29.386719 13.875 28.878906 13.875 Z M 28.878906 13.875 "/>
</g>
</svg>
