<?xml version="1.0" encoding="UTF-8"?>
<svg width="40px" height="40px" viewBox="0 0 40 40" version="1.1" xmlns="http://www.w3.org/2000/svg" xmlns:xlink="http://www.w3.org/1999/xlink">
    <title>F27ECB3E-5BA6-4D4A-A6A8-CC42B5BD5552</title>
    <g id="Symbols" stroke="none" stroke-width="1" fill="none" fill-rule="evenodd">
        <g id="Icon/40/lockscreen" fill="#000000" fill-rule="nonzero">
            <g id="lock" transform="translate(6.000000, 13.000000)">
                <path d="M9.5,1.03544937 C6.14639664,1.02196158 3.4145289,3.72529648 3.39285714,7.07885714 L3.39285714,8.1985 L2.88392857,8.1985 C1.67224015,8.19323911 0.685299995,9.1704617 0.678571429,10.3821429 L0.678571429,20.2132857 C0.687534898,21.4233734 1.67381918,22.3981257 2.88392857,22.3928784 L16.1160714,22.3928784 C17.3261808,22.3981257 18.3124651,21.4233734 18.3214286,20.2132857 L18.3214286,10.3821429 C18.3147,9.1704617 17.3277598,8.19323911 16.1160714,8.1985 L15.6071429,8.1985 L15.6071429,7.07885714 C15.5854711,3.72529648 12.8536034,1.02196158 9.5,1.03544937 Z M6.10714286,7.07885714 C6.10714286,5.20503388 7.62617674,3.686 9.5,3.686 C11.3738233,3.686 12.8928571,5.20503388 12.8928571,7.07885714 L12.8928571,8.1985 L6.10714286,8.1985 L6.10714286,7.07885714 Z M9.5,16.2938571 C8.37570604,16.2938571 7.46428571,15.3824368 7.46428571,14.2581429 C7.46428571,13.1338489 8.37570604,12.2224286 9.5,12.2224286 C10.624294,12.2224286 11.5357143,13.1338489 11.5357143,14.2581429 C11.5357143,15.3824368 10.624294,16.2938571 9.5,16.2938571 Z" id="Shape"></path>
            </g>
            <path d="M28.5,19.5773593 C31.5361953,19.5740525 33.9966932,17.1135547 34,14.0773593 C34,11.7103593 30.736,6.53435933 29.333,4.41935933 C29.1374006,4.15555823 28.8284055,4 28.5,4 C28.1715945,4 27.8625994,4.15555823 27.667,4.41935933 C26.263,6.53435933 23,11.7093593 23,14.0773593 C23.0033068,17.1135547 25.4638047,19.5740525 28.5,19.5773593 Z M25.75,13.5773593 C26.0261424,13.5773593 26.25,13.801217 26.25,14.0773593 C26.2511027,15.319543 27.2578164,16.3262566 28.5,16.3273593 C28.7761424,16.3273593 29,16.551217 29,16.8273593 C29,17.1035017 28.7761424,17.3273593 28.5,17.3273593 C26.7059883,17.3251554 25.2522039,15.8713711 25.25,14.0773593 C25.25,13.801217 25.4738576,13.5773593 25.75,13.5773593 L25.75,13.5773593 Z" id="Shape"></path>
        </g>
    </g>
</svg>