<?xml version="1.0" encoding="UTF-8"?>
<svg width="40px" height="40px" viewBox="0 0 40 40" version="1.1" xmlns="http://www.w3.org/2000/svg" xmlns:xlink="http://www.w3.org/1999/xlink">
    <title>08F3C6E4-3EB4-4BEE-AD1A-5E1A63924378</title>
    <g id="Symbols" stroke="none" stroke-width="1" fill="none" fill-rule="evenodd">
        <g id="Icon/40/progress" fill="#000000" fill-rule="nonzero">
            <g id="stopwatch-alternate" transform="translate(10.000000, 6.000000)">
                <path d="M17.159,8.257 L18.707,6.708 C18.9669566,6.45692553 19.0712126,6.08512211 18.9796972,5.73549268 C18.8881817,5.38586324 18.6151368,5.11281828 18.2655073,5.02130284 C17.9158779,4.9297874 17.5440745,5.03404342 17.293,5.294 L15.693,6.894 C14.3241706,5.8669724 12.7021016,5.23100245 11,5.054 L11,2 L13,2 C13.5522847,2 14,1.55228475 14,1 C14,0.44771525 13.5522847,0 13,0 L7,0 C6.44771525,0 6,0.44771525 6,1 C6,1.55228475 6.44771525,2 7,2 L9,2 L9,5.054 C4.64650792,5.51568837 1.17222439,8.89267251 0.587093498,13.231298 C0.00196260964,17.5699235 2.45751286,21.7466377 6.53315821,23.3451258 C10.6088036,24.943614 15.2490939,23.5499236 17.7695264,19.9703329 C20.289959,16.3907422 20.0378294,11.5522405 17.159,8.254 L17.159,8.257 Z M10,22.5 C5.581722,22.5 2,18.918278 2,14.5 C2,10.081722 5.581722,6.5 10,6.5 C14.418278,6.5 18,10.081722 18,14.5 C18,16.6217319 17.1571453,18.6565632 15.6568542,20.1568542 C14.1565632,21.6571453 12.1217319,22.5 10,22.5 Z" id="Shape"></path>
                <path d="M10,8 C6.41014913,8 3.5,10.9101491 3.5,14.5 C3.5,18.0898509 6.41014913,21 10,21 C13.5898509,21 16.5,18.0898509 16.5,14.5 C16.5,12.7760928 15.8151805,11.1227924 14.5961941,9.90380592 C13.3772076,8.68481946 11.7239072,8 10,8 Z M10.53,14.822 C10.2351875,15.1095925 9.7648125,15.1095925 9.47,14.822 L7.428,12.782 C7.13501295,12.4890129 7.13501295,12.0139871 7.42800001,11.721 C7.72098706,11.428013 8.19601294,11.4280129 8.489,11.721 L10.53,13.763 C10.6706955,13.9034953 10.7497543,14.094168 10.7497543,14.293 C10.7497543,14.491832 10.6706955,14.6825047 10.53,14.823 L10.53,14.822 Z" id="Shape"></path>
            </g>
        </g>
    </g>
</svg>