<?xml version="1.0" encoding="UTF-8" standalone="no"?>
<svg
   width="75"
   height="65"
   viewBox="0 0 75 65"
   version="1.1"
   id="svg10"
   sodipodi:docname="icon_40_alarm_2.svg"
   inkscape:version="1.2.2 (b0a8486, 2022-12-01)"
   xmlns:inkscape="http://www.inkscape.org/namespaces/inkscape"
   xmlns:sodipodi="http://sodipodi.sourceforge.net/DTD/sodipodi-0.dtd"
   xmlns="http://www.w3.org/2000/svg"
   xmlns:svg="http://www.w3.org/2000/svg"
   xmlns:rdf="http://www.w3.org/1999/02/22-rdf-syntax-ns#"
   xmlns:cc="http://creativecommons.org/ns#"
   xmlns:dc="http://purl.org/dc/elements/1.1/">
  <defs
     id="defs14" />
  <sodipodi:namedview
     id="namedview12"
     pagecolor="#ffffff"
     bordercolor="#000000"
     borderopacity="0.25"
     inkscape:showpageshadow="2"
     inkscape:pageopacity="0.0"
     inkscape:pagecheckerboard="0"
     inkscape:deskcolor="#d1d1d1"
     showgrid="false"
     inkscape:zoom="15.026019"
     inkscape:cx="36.669726"
     inkscape:cy="27.951515"
     inkscape:window-width="1920"
     inkscape:window-height="1043"
     inkscape:window-x="1920"
     inkscape:window-y="0"
     inkscape:window-maximized="1"
     inkscape:current-layer="alarm-bell-1" />
  <title
     id="title2">C646B3EC-4809-41BA-92D9-76AFDE2B1DAD</title>
  <g
     id="Symbols"
     stroke="none"
     stroke-width="1"
     fill="none"
     fill-rule="evenodd"
     transform="translate(17.499749,12.500002)">
    <g
       id="Icon/40/alarm"
       fill="#000000"
       fill-rule="nonzero">
      <g
         id="alarm-bell-1"
         transform="translate(10,8)">
        <path
           d="M 12.236,20.999996 H 7.764 c -0.127073,2.21e-4 -0.233768,0.09573 -0.248,0.222004 -0.0109,0.09226 -0.01624,0.185097 -0.01601,0.277996 0,1.380716 1.119296,2.5 2.5,2.5 1.38072,0 2.500016,-1.119284 2.500016,-2.5 2.32e-4,-0.0929 -0.0051,-0.185733 -0.01601,-0.277996 -0.01336,-0.126724 -0.120576,-0.222702 -0.248,-0.222004 z"
           id="Path" />
        <path
           id="path5"
           d="m 10.000251,-2e-6 c -0.828426,0 -1.5,0.6715737 -1.5,1.5 V 2.6484355 C 7.463003,2.8448816 6.485861,3.2826481 5.648688,3.9257792 3.48697,5.7066734 2.253627,8.3753246 2.299079,11.175779 v 0.767578 c -0.0036,2.546552 -0.599637,5.057158 -1.744141,7.332032 -0.07759,0.154833 -0.0713,0.338874 0.01953,0.486328 0.09083,0.147453 0.252595,0.237929 0.425781,0.238281 h 18 c 0.173475,0 0.334886,-0.09052 0.425781,-0.238281 0.09089,-0.147755 0.09759,-0.331411 0.01953,-0.486328 -0.323006,-0.642024 -0.597175,-1.303435 -0.832031,-1.978516 a 17,17 0 0 1 -7.11328,-13.796875 17,17 0 0 1 0.04883,-0.8515625 c -0.0165,-0.00308 -0.0323,-0.00876 -0.04883,-0.011719 V 1.499998 c 0,-0.8284263 -0.671574,-1.5 -1.5,-1.5 z" />
        <ellipse
           style="font-variation-settings:normal;opacity:1;fill:#000000;fill-opacity:0;fill-rule:evenodd;stroke:#000000;stroke-width:3.76472;stroke-linecap:butt;stroke-linejoin:miter;stroke-miterlimit:4;stroke-dasharray:none;stroke-dashoffset:0;stroke-opacity:1;stop-color:#000000;stop-opacity:1"
           id="circle936"
           cx="29.300755"
           cy="3.4003494"
           rx="16.000143"
           ry="15.999991" />
      </g>
    </g>
  </g>
  <metadata
     id="metadata274">
    <rdf:RDF>
      <cc:Work
         rdf:about="">
        <dc:title>C646B3EC-4809-41BA-92D9-76AFDE2B1DAD</dc:title>
      </cc:Work>
    </rdf:RDF>
  </metadata>
</svg>
