<?xml version="1.0" encoding="UTF-8"?>
<svg width="40px" height="40px" viewBox="0 0 40 40" version="1.1" xmlns="http://www.w3.org/2000/svg" xmlns:xlink="http://www.w3.org/1999/xlink">
    <title>C744CBE6-209A-45B9-B924-FB1DFD024160</title>
    <g id="Symbols" stroke="none" stroke-width="1" fill="none" fill-rule="evenodd">
        <g id="Icon/40/close" fill="#000000" fill-rule="nonzero">
            <g id="delete-2-alternate" transform="translate(11.000000, 10.000000)">
                <path d="M17.3883215,1.61049667 C16.550442,0.775804131 15.1950379,0.775804131 14.3571583,1.61049667 L9.00715522,6.95862371 L3.6504162,1.61049667 C2.8053706,0.803120426 1.46992374,0.818402762 0.643588733,1.64490564 C-0.182746269,2.47140852 -0.197294309,3.80639534 0.610833073,4.65069731 L5.95915219,9.99882434 L0.610833073,15.3486348 C-0.197294309,16.1929367 -0.182746269,17.5279236 0.643588733,18.3544264 C1.46992374,19.1809293 2.8053706,19.1962116 3.6504162,18.3888354 L8.99873532,13.0407084 L14.3487384,18.3905188 C15.2007845,19.147542 16.4957254,19.1083875 17.3004441,18.3012695 C18.1051629,17.4941515 18.1400216,16.1995416 17.3799016,15.3503182 L12.0315825,10.0005077 L17.3799016,4.6523807 C18.2222794,3.8146138 18.2260486,2.45291082 17.3883215,1.61049667 Z" id="Path"></path>
            </g>
        </g>
    </g>
</svg>