<?xml version="1.0" encoding="UTF-8"?>
<svg width="24px" height="24px" viewBox="0 0 24 24" version="1.1" xmlns="http://www.w3.org/2000/svg" xmlns:xlink="http://www.w3.org/1999/xlink">
    <title>241EFBFA-E46E-4956-A715-EF3773A6BCD6</title>
    <defs>
        <filter id="filter-1">
            <feColorMatrix in="SourceGraphic" type="matrix" values="0 0 0 0 0.890196 0 0 0 0 0.925490 0 0 0 0 0.984314 0 0 0 1.000000 0"></feColorMatrix>
        </filter>
    </defs>
    <g id="Prototype:-v3" stroke="none" stroke-width="1" fill="none" fill-rule="evenodd">
        <g id="PIP-Adjustment-Keypad" transform="translate(-720.000000, -556.000000)">
            <g id="Page/adjustment-screen" transform="translate(21.000000, 24.000000)">
                <g id="keypad" transform="translate(463.000000, 97.000000)">
                    <g id="keyboard-delete" transform="translate(0.000000, 95.000000)" filter="url(#filter-1)">
                        <g transform="translate(236.000000, 340.000000)">
                            <path d="M19.5,0.5 L4.5,0.5 C2.29359627,0.506589602 0.506589602,2.29359627 0.5,4.5 L0.5,19.5 C0.50604334,21.7066309 2.29336908,23.4939567 4.5,23.5 L19.5,23.5 C21.7066309,23.4939567 23.4939567,21.7066309 23.5,19.5 L23.5,4.5 C23.4934104,2.29359627 21.7064037,0.506589602 19.5,0.5 Z M19.5,15 C19.5,15.8284271 18.8284271,16.5 18,16.5 L8.207,16.5 C7.80897508,16.5008428 7.4270682,16.3428248 7.146,16.061 L4.146,13.061 C3.56042709,12.4752502 3.56042709,11.5257498 4.146,10.94 L7.146,7.94 C7.42727968,7.65837004 7.80896271,7.5 8.207,7.5 L18,7.5 C18.8284271,7.5 19.5,8.17157288 19.5,9 L19.5,15 Z" id="Shape" fill="#000000" fill-rule="nonzero"></path>
                            <path d="M10.97,14.028 C11.2630449,14.3199035 11.7369551,14.3199035 12.03,14.028 L12.823,13.235 C12.8699021,13.1879791 12.9335864,13.1615531 13,13.1615531 C13.0664136,13.1615531 13.1300979,13.1879791 13.177,13.235 L13.97,14.028 C14.2644177,14.3120936 14.7321977,14.3078096 15.021363,14.0183716 C15.3105282,13.7289335 15.3143711,13.2611496 15.03,12.967 L14.237,12.174 C14.1397373,12.0764326 14.1397373,11.9185674 14.237,11.821 L15.03,11.028 C15.3143711,10.7338504 15.3105282,10.2660665 15.021363,9.97662843 C14.7321977,9.68719039 14.2644177,9.68290644 13.97,9.967 L13.177,10.76 C13.1300979,10.8070209 13.0664136,10.8334469 13,10.8334469 C12.9335864,10.8334469 12.8699021,10.8070209 12.823,10.76 L12.03,9.967 C11.8416018,9.77212339 11.5627134,9.69406442 11.3005249,9.76282489 C11.0383365,9.83158537 10.8336503,10.0364646 10.7651371,10.2987178 C10.6966239,10.560971 10.7749458,10.8397856 10.97,11.028 L11.763,11.821 C11.8602627,11.9185674 11.8602627,12.0764326 11.763,12.174 L10.97,12.967 C10.8292437,13.1076661 10.7501601,13.2985044 10.7501601,13.4975 C10.7501601,13.6964956 10.8292437,13.8873339 10.97,14.028 Z" id="Path" fill="#000000" fill-rule="nonzero"></path>
                        </g>
                    </g>
                </g>
            </g>
        </g>
    </g>
</svg>