<svg id="Layer_1" data-name="Layer 1" xmlns="http://www.w3.org/2000/svg" xmlns:xlink="http://www.w3.org/1999/xlink" viewBox="0 0 552.31 653.43"><defs><style>.cls-1{fill:none;}.cls-2{clip-path:url(#clip-path);}.cls-3,.cls-4{fill:#fff;}.cls-4{stroke:#fff;stroke-miterlimit:10;stroke-width:3px;}</style><clipPath id="clip-path"><rect class="cls-1" x="19.01" y="17.88" width="515.15" height="470.05"/></clipPath></defs><g class="cls-2"><polygon class="cls-3" points="19.01 407.77 29.85 407.77 29.85 479.07 54.85 479.07 54.85 487.94 19.01 487.94 19.01 407.77 19.01 407.77"/></g><path class="cls-3" d="M114,435.11l-2.34-19.71-2.71,19.71-7.26,29.43H121l-7-29.43ZM95.74,487.94H86.25l20.45-80.17h11l20.07,80.17H126.52l-3.69-15.64H99.68l-3.94,15.64Z"/><polygon class="cls-3" points="173.32 407.77 184.65 407.77 204.36 454.93 211.5 478.7 208.91 450.99 208.91 407.77 218.39 407.77 218.39 487.94 207.44 487.94 186.62 438.8 180.34 416.51 182.68 442.62 182.68 487.94 173.32 487.94 173.32 407.77 173.32 407.77"/><polygon class="cls-3" points="253.74 416.88 253.74 407.77 297.09 407.77 297.09 416.88 280.83 416.88 280.83 487.94 270 487.94 270 416.88 253.74 416.88 253.74 416.88"/><polygon class="cls-3" points="332.56 407.77 368.4 407.77 368.4 416.88 343.4 416.88 343.4 442.74 364.95 442.74 364.95 451.24 343.4 451.24 343.4 478.95 370.12 478.95 370.12 487.94 332.56 487.94 332.56 407.77 332.56 407.77"/><path class="cls-3" d="M427.39,448c8.74,0,12.07-3.45,12.07-13.92v-4.43c0-10.22-3.58-13.06-12.32-13.06h-9V448Zm13.42,11.45,11.46,28.45H441.06L428.13,455.3h-10v32.64H407.44V407.77H428c14.9,0,22.78,8,22.78,24.13,0,11.46-3.81,20.57-16.37,22.42l6.4,5.17Z"/><polygon class="cls-3" points="489.09 407.77 500.42 407.77 520.13 454.93 527.27 478.7 524.68 450.99 524.68 407.77 534.16 407.77 534.16 487.94 523.21 487.94 502.39 438.8 496.11 416.51 498.45 442.62 498.45 487.94 489.09 487.94 489.09 407.77 489.09 407.77"/><path class="cls-3" d="M246.47,266.62c-11.52-5.38-16-20.3-13.08-43.14a176.88,176.88,0,0,1,8-33l1.08.39c-.22.62-16.51,62.23,10.26,74.72l-6.21,1.05Z"/><path class="cls-3" d="M306.71,266.62l-6.21-1.05c26.77-12.49,10.48-74.1,10.25-74.72l1.09-.39a176.88,176.88,0,0,1,8,33c3,22.84-1.56,37.76-13.08,43.14Z"/><path class="cls-4" d="M293.41,185.21v7.46s10.35,20.55,9.28,32.67S292,245.89,279.85,245.89h-6.78c-12.13,0-21.77-8.44-22.84-20.55s9.28-32.67,9.28-32.67v-7.46h33.9"/><path class="cls-3" d="M319.15,299.22v23.21c0,4.28-19.06,7.74-42.56,7.74S234,326.71,234,322.43V299.22"/><g class="cls-2"><path class="cls-3" d="M319.15,299.22c0,4.28-19.06,7.74-42.56,7.74S234,303.5,234,299.22s19.06-7.74,42.56-7.74,42.56,3.47,42.56,7.74Z"/><path class="cls-3" d="M357.57,149.5h-.21c-1.07-4-1.13-10.36,1.07-12.3a2.55,2.55,0,0,1,1.74-.57,3.7,3.7,0,0,1,2.23.3c2.55,1.08,2.48,2.64,2.56,4,.15,2.83-5.3,7.26-7.39,8.54Zm-2-14.46c-4,3.51-1.3,13.77-.89,15.24a66.48,66.48,0,0,1,.86,11.13c-4.56,2.27-14.55,3.74-20.73,4.49l-.82-2.53c5.75-1.33,9.06-2.88,9.06-4.54,0-3.33-13.38-6.25-33.26-7.8l-1.05-27.11s-.76-2.35-10.22-3.93V108c7.5-.41,12.27-1,12.27-1.72,0,0-7.9-4.79-25.38-6.08v-4H267.76v4c-17.48,1.29-25.38,6.08-25.38,6.08,0,.69,4.77,1.31,12.27,1.72v11.87c-9.72,1.44-10.7,3.59-10.7,3.59l-.87,27.62c-19.71,1.56-33,4.46-33,7.78,0,1.65,3.28,3.19,9,4.52l-.82,2.54c-6.18-.75-16.11-2.22-20.64-4.48a66.48,66.48,0,0,1,.86-11.13c.4-1.47,3.09-11.73-.89-15.24a5,5,0,0,0-.65-.4l2.67-52.57a51.67,51.67,0,0,1,7.65-24.95c9-14.38,28.56-32.94,69.19-32.94,39.32,0,59.12,17.25,68.75,31.38a52.37,52.37,0,0,1,8.89,26.88l2.64,51.9a4,4,0,0,0-1.16.7Zm-92.94-22v-4.76c4.26.13,9,.2,13.95.2s9.69-.07,14-.2v4.76Zm91.1,55.09c-2.43.56-7.28,1.94-11.49,3.39-8,2.73-10.91,3.92-10.91,5,0,1.77,3.75,43.25,4.83,59.92,1.07,16.42-11,27-19.42,28.91a12.18,12.18,0,0,0-7,4.42v-2.6H243.43v2.6a12.18,12.18,0,0,0-7-4.42c-8.47-1.95-20.5-12.49-19.42-28.91,1.08-16.67,4.82-58.15,4.82-59.92,0-1.06-2.94-2.25-10.9-5-4.21-1.45-9.07-2.83-11.49-3.39-.88-.2-1.41-1.78-1.66-4.12,6.94,3.26,24.72,6.79,25.16,6.93l.93-6.63c5.44,1,12.24,1.77,20,2.37v6.8l-4.6,4.83v9.43l.09.44c0,1.79,16.64,3.24,37.18,3.24s37.18-1.45,37.18-3.24l.08-.44v-9.43l-4.6-4.83v-6.8c7.77-.6,14.56-1.4,20-2.36l1,6.62c.44-.14,18.21-3.67,25.16-6.93-.25,2.34-.78,3.92-1.66,4.12Zm-40.24,118,.68.15c8.58,1.84,27.58,3.37,27.58,42.25v.08c0,3.31-6.52,5.61-18.21,8.19-12.47,2.76-29.07,4.28-46.74,4.28s-34.26-1.52-46.74-4.28c-11.69-2.58-18.67-5-18.67-8.27h0c0-38.88,19-40.41,27.58-42.25l.68-.15a6.48,6.48,0,0,0,3.75-2.72v14.17c0,3.13,17.08,4.82,33.16,4.82s33.16-1.69,33.16-4.82V283.46a6.48,6.48,0,0,0,3.75,2.72ZM196.32,149.51h-.2c-2.1-1.28-7.55-5.71-7.39-8.54.07-1.38,0-2.94,2.55-4a3.71,3.71,0,0,1,2.23-.3,2.6,2.6,0,0,1,1.75.57c2.2,1.94,2.13,8.31,1.06,12.3Zm166.47-14.68a9.45,9.45,0,0,0-4.48-.88L356.7,73.52s-3.2-55.64-80.24-55.64C199.58,17.88,197,73.52,197,73.52l-1.61,60.53a8.64,8.64,0,0,0-5,.78c-3.42,1.45-5.22,3.37-5.35,5.7-.24,4.41,5.81,8.38,7.68,9.5l2.54,12.73.11.05c.25,3.8,1.18,7,3.55,7.56,5.86,1.35,13.38,4.93,14.91,6.39-.08,3.87,1.95,43.36.89,59.52-.64,9.92,3.15,19.33,6.45,23.56,4,5.05,9.46,8.8,14.75,10,4.65,1.07,7.23,2.9,7.51,6v1.28a5,5,0,0,1-4.23,4.55l-.68.15c-8.45,1.8-29.39,6-29.39,46.77h0c0,5.68,11,11.59,20.26,13.63,12.64,2.79,29.43,4.32,47.27,4.32s34.63-1.53,47.27-4.32c9.24-2,20.12-7.95,20.12-13.63h0c0-40.73-20.94-45-29.39-46.77l-.68-.15a5,5,0,0,1-4.23-4.55v-1.28c.28-3.07,2.86-4.9,7.51-6,5.29-1.22,10.8-5,14.74-10,3.3-4.23,7.1-13.64,6.46-23.56-1.06-16.16,1-55.65.89-59.52,1.52-1.46,9-5,14.91-6.39,2.36-.55,3.3-3.76,3.55-7.56l.1-.05L360.46,150c1.87-1.12,7.92-5.09,7.68-9.5-.13-2.33-1.93-4.25-5.35-5.7Z"/></g><path class="cls-3" d="M338.67,197.55c11.5,2.26,18.9,5.46,18.9,9.76,0,10.22-41.73,17.26-81,17.26s-81-7-81-17.26c0-4.3,7.4-7.5,18.89-9.76l.06,1.63c-10.7,2.42-16.79,5.34-16.79,8.13,0,6.42,32.37,10.53,78.82,10.53s78.82-4.11,78.82-10.53c0-2.79-6.09-5.71-16.79-8.13l.05-1.63"/><path class="cls-3" d="M276.59,262.34c-16.08,0-33.16,1.69-33.16,4.82S260.51,272,276.59,272s33.16-1.69,33.16-4.83-17.09-4.82-33.16-4.82Z"/><path class="cls-3" d="M264.14,258.12v9.77c0,.93,5.57,1.69,12.45,1.69s12.45-.76,12.45-1.69v-10s-2.54-6.77-12.21-6.77-12.69,7-12.69,7Z"/><path class="cls-3" d="M264.63,96.43c0-.9,5.35-1.62,12-1.62s12,.72,12,1.62-5.36,1.62-12,1.62-12-.73-12-1.62Z"/><path class="cls-3" d="M86.43,531.32H96.94l8.46,38.31,2.33,18.88L110,569.63l9.2-38.31h10.89v60.54h-8V565.54l1.49-30L119.82,557l-8.37,34.87h-8l-8-34.41-3.63-22,1.49,30v26.32H86.43Z"/><path class="cls-3" d="M160.92,531.32h27.16v6.88H169.2v19.53h16.27v6.42H169.2v20.92h20.18v6.79H160.92Z"/><path class="cls-3" d="M217.46,531.32H232q10.42,0,15.72,7.11t5.3,22.93a64.15,64.15,0,0,1-1.35,14.27,24.76,24.76,0,0,1-4.09,9.44,15.4,15.4,0,0,1-6.79,5.21,25.66,25.66,0,0,1-9.35,1.58H217.46Zm13.65,54.12a19.3,19.3,0,0,0,5.83-.79,8.15,8.15,0,0,0,4.16-3,16.3,16.3,0,0,0,2.55-6.18,49.86,49.86,0,0,0,.88-10.37v-7.91a43.7,43.7,0,0,0-.83-9.34,15.13,15.13,0,0,0-2.5-5.86,8.59,8.59,0,0,0-4.21-3,19.43,19.43,0,0,0-6-.83h-5.28v47.33Z"/><path class="cls-3" d="M281.73,531.32H290v60.54h-8.27Z"/><path class="cls-3" d="M338.18,592.88a18,18,0,0,1-9.12-2.14,16.24,16.24,0,0,1-6-6.18,30.16,30.16,0,0,1-3.35-9.86,77.17,77.17,0,0,1-1-13.25,69.72,69.72,0,0,1,1.11-13.11,31.55,31.55,0,0,1,3.44-9.77,16.15,16.15,0,0,1,6.05-6.09,17.78,17.78,0,0,1,8.84-2.09,25.18,25.18,0,0,1,7,.84,22.76,22.76,0,0,1,5.12,2.13l-1,6.51q-2.88-1.11-5.3-1.81a20.35,20.35,0,0,0-5.58-.7,11.38,11.38,0,0,0-4.37.84,7.88,7.88,0,0,0-3.53,3.07,17.71,17.71,0,0,0-2.33,6,47.32,47.32,0,0,0-.84,9.86v7.91a57.05,57.05,0,0,0,.79,10.41,19.67,19.67,0,0,0,2.24,6.47,8,8,0,0,0,3.48,3.3,11.16,11.16,0,0,0,4.65.93,16.72,16.72,0,0,0,5.82-.89q2.37-.87,5.06-2.18l1.87,6.23a31.4,31.4,0,0,1-5.58,2.46A22.77,22.77,0,0,1,338.18,592.88Z"/><path class="cls-3" d="M381.51,591.86h-7.16l15.44-60.54h8.28l15.16,60.54h-8.47L402,580.05H384.49ZM395.28,552l-1.77-14.92-2,14.92L386,574.28h14.6Z"/><path class="cls-3" d="M440.1,531.32h8.28v53.84h18.88v6.7H440.1Z"/></svg>