<?xml version="1.0" encoding="UTF-8"?>
<svg width="40px" height="40px" viewBox="0 0 40 40" version="1.1" xmlns="http://www.w3.org/2000/svg" xmlns:xlink="http://www.w3.org/1999/xlink">
    <title>76A193A2-A6FD-498D-B0F0-8E781F8A15C2</title>
    <g id="Symbols" stroke="none" stroke-width="1" fill="none" fill-rule="evenodd">
        <g id="Icon/40/lock-element" fill="#000000" fill-rule="nonzero">
            <g id="touch-finger-lock" transform="translate(8.000000, 8.000000)">
                <path d="M19.879,17 L16.75,17 C16.6119288,17 16.5,16.8880712 16.5,16.75 L16.5,10.375 C16.5,9.33946609 15.6605339,8.5 14.625,8.5 C13.5894661,8.5 12.75,9.33946609 12.75,10.375 L12.75,19.183 C12.7504251,19.4008971 12.6096903,19.5939789 12.4021223,19.6602727 C12.1945543,19.7265664 11.9679555,19.6508048 11.842,19.473 L10.469,17.54 C10.0555951,16.7869094 9.11494614,16.5040338 8.35473259,16.9041893 C7.59451904,17.3043448 7.2952167,18.2398965 7.682,19.007 L9.654,23.694 C9.73208302,23.8794793 9.9137551,24 10.115,24 L23.5,24 C23.7761424,24 24.0000477,23.7761424 24.0000477,23.5 L24.0000477,21.347 C24.0107777,19.0287418 22.1945328,17.1128923 19.879,17 L19.879,17 Z" id="Path"></path>
                <path d="M11,11 L11,8 C10.9988962,7.5116293 10.7586933,7.05475825 10.357,6.777 C10.2898417,6.7303764 10.2498494,6.65375558 10.25,6.572 L10.25,6 C10.25,4.48121694 9.01878306,3.25 7.5,3.25 C5.98121694,3.25 4.75,4.48121694 4.75,6 L4.75,6.572 C4.74997927,6.65371362 4.7100259,6.73025981 4.643,6.777 C4.2413067,7.05475825 4.00110384,7.5116293 4,8 L4,11 C4,11.8284271 4.67157288,12.5 5.5,12.5 L9.5,12.5 C10.3284271,12.5 11,11.8284271 11,11 Z M7.5,10.52 C6.94771525,10.52 6.5,10.0722847 6.5,9.52 C6.5,8.96771525 6.94771525,8.52 7.5,8.52 C8.05228475,8.52 8.5,8.96771525 8.5,9.52 C8.5,10.0722847 8.05228475,10.52 7.5,10.52 Z M8.75,6.25 C8.75,6.38807119 8.63807119,6.5 8.5,6.5 L6.5,6.5 C6.36192881,6.5 6.25,6.38807119 6.25,6.25 L6.25,6 C6.25,5.30964406 6.80964406,4.75 7.5,4.75 C8.19035594,4.75 8.75,5.30964406 8.75,6 L8.75,6.25 Z" id="Shape"></path>
                <path d="M3,13 L2.5,13 C2.22385763,13 2,12.7761424 2,12.5 L2,2.5 C2,2.22385763 2.22385763,2 2.5,2 L12.5,2 C12.7761424,2 13,2.22385763 13,2.5 L13,6 C13,6.55228475 13.4477153,7 14,7 C14.5522847,7 15,6.55228475 15,6 L15,2 C15,0.8954305 14.1045695,0 13,0 L2,0 C0.8954305,0 0,0.8954305 0,2 L0,13 C0,14.1045695 0.8954305,15 2,15 L3,15 C3.55228475,15 4,14.5522847 4,14 C4,13.4477153 3.55228475,13 3,13 Z" id="Path"></path>
            </g>
        </g>
    </g>
</svg>