<?xml version="1.0" encoding="UTF-8"?>
<svg width="40px" height="40px" viewBox="0 0 40 40" version="1.1" xmlns="http://www.w3.org/2000/svg" xmlns:xlink="http://www.w3.org/1999/xlink">
    <title>732C91B1-FF7E-4B66-930F-89459C43DF6D</title>
    <defs>
        <path d="M19.968,26.818 C21.3989698,26.818 22.559,27.9780302 22.559,29.409 C22.559,30.8399698 21.3989698,32 19.968,32 C18.5370302,32 17.377,30.8399698 17.377,29.409 C17.377,27.9780302 18.5370302,26.818 19.968,26.818 Z M12.159,20.546 C13.5892845,20.5476532 14.7483468,21.7067155 14.75,23.137 C14.75,24.5679698 13.5899698,25.728 12.159,25.728 C10.7280302,25.728 9.568,24.5679698 9.568,23.137 C9.568,21.7060302 10.7280302,20.546 12.159,20.546 Z M27.841,20.546 C29.2712845,20.5476532 30.4303468,21.7067155 30.432,23.137 C30.432,24.5679698 29.2719698,25.728 27.841,25.728 C26.4100302,25.728 25.25,24.5679698 25.25,23.137 C25.25,21.7060302 26.4100302,20.546 27.841,20.546 Z M19.968,20.5459998 C21.3978939,20.548204 22.556348,21.7071053 22.558,23.137 C22.558,24.1850527 21.9266148,25.1298885 20.9583017,25.5308674 C19.9899885,25.9318463 18.8754748,25.709988 18.1345327,24.9687598 C17.3935907,24.2275317 17.1721626,23.1129324 17.5735153,22.1447741 C17.9748679,21.1766159 18.9199474,20.5455955 19.968,20.5459998 Z M12.159,14.273 C13.5891227,14.2741021 14.7483458,15.4328779 14.7500002,16.863 C14.7504045,17.9110526 14.1193841,18.8561321 13.1512259,19.2574847 C12.1830676,19.6588374 11.0684683,19.4374093 10.3272402,18.6964673 C9.58601201,17.9555252 9.3641537,16.8410115 9.76513261,15.8726983 C10.1661115,14.9043852 11.1109473,14.273 12.159,14.273 Z M19.968,14.2729998 C21.3977322,14.2746532 22.5563468,15.4332678 22.5580002,16.863 C22.5584045,17.9111436 21.9272759,18.8562863 20.9589948,19.2575803 C19.9907137,19.6588744 18.876036,19.437263 18.1348865,18.6961135 C17.393737,17.954964 17.1721256,16.8402863 17.5734197,15.8720052 C17.9747137,14.9037241 18.9198564,14.2725955 19.968,14.2729998 Z M27.841,14.273 C29.2711227,14.2741021 30.4303458,15.4328779 30.4320002,16.863 C30.4324045,17.9110526 29.8013841,18.8561321 28.8332259,19.2574847 C27.8650676,19.6588374 26.7504683,19.4374093 26.0092402,18.6964673 C25.268012,17.9555252 25.0461537,16.8410115 25.4471326,15.8726983 C25.8481115,14.9043852 26.7929473,14.273 27.841,14.273 Z M12.159,8 C13.5899698,8 14.75,9.16003021 14.75,10.591 C14.75,12.0219698 13.5899698,13.182 12.159,13.182 C10.7280302,13.182 9.568,12.0219698 9.568,10.591 C9.568,9.16003021 10.7280302,8 12.159,8 Z M19.968,8 C21.3989698,8 22.559,9.16003021 22.559,10.591 C22.559,12.0219698 21.3989698,13.182 19.968,13.182 C18.5370302,13.182 17.377,12.0219698 17.377,10.591 C17.377,9.16003021 18.5370302,8 19.968,8 Z M27.841,8 C29.2719698,8 30.432,9.16003021 30.432,10.591 C30.432,12.0219698 29.2719698,13.182 27.841,13.182 C26.4107155,13.1803468 25.2516532,12.0212845 25.25,10.591 C25.25,9.16003021 26.4100302,8 27.841,8 Z" id="path-1"></path>
    </defs>
    <g id="Symbols" stroke="none" stroke-width="1" fill="none" fill-rule="evenodd">
        <g id="Icon/40/num-pad">
            <mask id="mask-2" fill="white">
                <use xlink:href="#path-1"></use>
            </mask>
            <use id="Combined-Shape" fill="#000000" fill-rule="nonzero" xlink:href="#path-1"></use>
        </g>
    </g>
</svg>