<?xml version="1.0" encoding="UTF-8"?>
<svg width="40px" height="40px" viewBox="0 0 40 40" version="1.1" xmlns="http://www.w3.org/2000/svg" xmlns:xlink="http://www.w3.org/1999/xlink">
    <title>C60E0E53-916C-41C5-A452-1316D3A5EE56</title>
    <g id="Symbols" stroke="none" stroke-width="1" fill="none" fill-rule="evenodd">
        <g id="Icon/40/passcode" fill="#000000" fill-rule="nonzero">
            <g id="password-lock-2" transform="translate(8.000000, 10.000000)">
                <path d="M-9.44538189e-05,2.5 L-9.44538189e-05,9.5 C-0.0105551141,10.5921653 0.864863255,11.4868187 1.957,11.5 L10.565,11.5 C11.1172847,11.5 11.565,11.0522847 11.565,10.5 C11.565,9.94771525 11.1172847,9.5 10.565,9.5 L2.5,9.5 C2.22385763,9.5 2,9.27614237 2,9 L1.96,3 C1.96,2.72385763 2.18385763,2.5 2.46,2.5 L21.5,2.5 C21.7761424,2.5 22,2.72385763 22,3 L22,6.5 C22,7.05228475 22.4477153,7.5 23,7.5 C23.5522847,7.5 24.0000946,7.05228475 24.0000946,6.5 L24.0000946,2.5 C24.0105582,1.40822025 23.1357445,0.513727733 22.044,0.5 L1.957,0.5 C0.865097171,0.513728008 -0.0100034512,1.4080567 -9.44538189e-05,2.5 Z" id="Path"></path>
                <circle id="Oval" cx="6.5" cy="6" r="1.5"></circle>
                <circle id="Oval" cx="12.5" cy="6" r="1.5"></circle>
                <path d="M21.882,11.515 C21.7590563,11.4975457 21.6677646,11.3921763 21.668,11.268 L21.668,10.25 C21.668,8.31700338 20.1009966,6.75 18.168,6.75 C16.2350034,6.75 14.668,8.31700338 14.668,10.25 L14.668,11.268 C14.6682354,11.3921763 14.5769437,11.4975457 14.454,11.515 C13.7157403,11.6214136 13.167829,12.2541105 13.168,13 L13.168,18.5 C13.168,19.3284271 13.8395729,20 14.668,20 L21.668,20 C22.4964271,20 23.168,19.3284271 23.168,18.5 L23.168,13 C23.168171,12.2541105 22.6202597,11.6214136 21.882,11.515 Z M18.168,17.25 C17.6157153,17.25 17.168,16.8022847 17.168,16.25 C17.168,15.6977153 17.6157153,15.25 18.168,15.25 C18.7202847,15.25 19.168,15.6977153 19.168,16.25 C19.168,16.8022847 18.7202847,17.25 18.168,17.25 Z M19.668,11.25 C19.668,11.3880712 19.5560712,11.5 19.418,11.5 L16.918,11.5 C16.7799288,11.5 16.668,11.3880712 16.668,11.25 L16.668,10.25 C16.668,9.42157288 17.3395729,8.75 18.168,8.75 C18.9964271,8.75 19.668,9.42157288 19.668,10.25 L19.668,11.25 Z" id="Shape"></path>
            </g>
        </g>
    </g>
</svg>