<?xml version="1.0" encoding="UTF-8"?>
<svg width="40px" height="40px" viewBox="0 0 40 40" version="1.1" xmlns="http://www.w3.org/2000/svg" xmlns:xlink="http://www.w3.org/1999/xlink">
    <title>E01E83F1-5D99-4A51-8E96-3DC1073C47E6</title>
    <g id="Symbols" stroke="none" stroke-width="1" fill="none" fill-rule="evenodd">
        <g id="Icon/40/play" fill="#000000" fill-rule="nonzero">
            <path d="M20,8 C13.372583,8 8,13.372583 8,20 C8,26.627417 13.372583,32 20,32 C26.627417,32 32,26.627417 32,20 C31.9928352,13.375553 26.624447,8.00716485 20,8 Z M24.828,20.894 L17.447,24.584 L17.447,24.584 C17.1370975,24.7388588 16.7691208,24.7222854 16.4743943,24.5401945 C16.1796678,24.3581037 16.000185,24.0364401 16,23.69 L16,16.308 C16,15.9616696 16.1792204,15.6400018 16.4737061,15.4577302 C16.7681918,15.2754586 17.1360229,15.2585366 17.446,15.413 L24.829,19.1 C25.1699796,19.2687462 25.3856686,19.6163605 25.3854566,19.9968106 C25.3852443,20.3772608 25.1691676,20.7246343 24.828,20.893 L24.828,20.894 Z" id="Shape"></path>
        </g>
    </g>
</svg>