<?xml version="1.0" encoding="UTF-8"?>
<svg width="40px" height="40px" viewBox="0 0 40 40" version="1.1" xmlns="http://www.w3.org/2000/svg" xmlns:xlink="http://www.w3.org/1999/xlink">
    <title>EB22C91E-2727-416E-B004-E0D16885090A</title>
    <g id="Symbols" stroke="none" stroke-width="1" fill="none" fill-rule="evenodd">
        <g id="Icon/40/plus" fill="#000000" fill-rule="nonzero">
            <g id="add-bold" transform="translate(8.000000, 8.000000)">
                <path d="M8.5,22 C8.5,22.8284271 9.17157288,23.5 10,23.5 L14,23.5 C14.8284271,23.5 15.5,22.8284271 15.5,22 L15.5,15.75 C15.5,15.6119288 15.6119288,15.5 15.75,15.5 L22,15.5 C22.8284271,15.5 23.5,14.8284271 23.5,14 L23.5,10 C23.5,9.17157288 22.8284271,8.5 22,8.5 L15.75,8.5 C15.6119288,8.5 15.5,8.38807119 15.5,8.25 L15.5,2 C15.5,1.17157288 14.8284271,0.5 14,0.5 L10,0.5 C9.17157288,0.5 8.5,1.17157288 8.5,2 L8.5,8.25 C8.5,8.38807119 8.38807119,8.5 8.25,8.5 L2,8.5 C1.17157288,8.5 0.5,9.17157288 0.5,10 L0.5,14 C0.5,14.8284271 1.17157288,15.5 2,15.5 L8.25,15.5 C8.38807119,15.5 8.5,15.6119288 8.5,15.75 L8.5,22 Z" id="Path"></path>
            </g>
        </g>
    </g>
</svg>